<?xml version="1.0" encoding="utf-8"?>
<svg height="20" viewBox="0 0 28 20" width="28" xmlns="http://www.w3.org/2000/svg" xmlns:xlink="http://www.w3.org/1999/xlink">
  <defs>
    <path id="a" d="m0 6.667h28v6.667h-28z"/>
    <path id="c" d="m0 13.333h28v6.667h-28z"/>
    <clipPath id="f">
      <path d="m57.5.5h397a57,57 0 0,1 57,57v397a57,57 0 0,1 -57,57h-397a57,57 0 0,1 -57-57v-397a57,57 0 0,1 57-57"/>
    </clipPath>
    <clipPath id="g">
      <path d="m57,0h398a57,57 0 0,1 57,57v398a57,57 0 0,1 -57,57h-398a57,57 0 0,1 -57-57v-398a57,57 0 0,1 57-57"/>
    </clipPath>
    <filter id="e">
      <feGaussianBlur stdDeviation="5.12"/>
    </filter>
    <filter id="d">
      <feGaussianBlur stdDeviation="17.92"/>
    </filter>
    <linearGradient id="gradient-1">
      <stop stop-color="#dbe3db" offset="0"/>
      <stop stop-color="#dbe3db" stop-opacity="0" offset="1"/>
    </linearGradient>
    <linearGradient id="a-1" x1="342.19" x2="358.08" y1="705.76" y2="523.41" gradientTransform="matrix(1.1571 0 0 1.3167 -91.204 -253.99)" gradientUnits="userSpaceOnUse" xlink:href="#gradient-1"/>
    <linearGradient id="b" x1="405.26" x2="405.75" y1="118.06" y2="360.92" gradientTransform="matrix(.95303 0 0 .86647 11.575 -4.5016)" gradientUnits="userSpaceOnUse" xlink:href="#gradient-1"/>
  </defs>
  <g transform="matrix(0.054516, 0, 0, 0.038974, -6.943974, -4.98869)" style="">
    <g transform="translate(90,90)">
      <path d="m95,56h398a57,57 0 0,1 57,57v398a57,57 0 0,1 -57,57h-398a57,57 0 0,1 -57-57v-398a57,57 0 0,1 57-57" filter="url(#d)" stroke="#a8a8a8" stroke-width="5"/>
    </g>
    <g transform="translate(128,128)" clip-path="url(#f)">
      <path d="m57,0h398a57,57 0 0,1 57,57v398a57,57 0 0,1 -57,57h-398a57,57 0 0,1 -57-57v-398a57,57 0 0,1 57-57" fill="#00f"/>
      <path d="m0 0h512v512h-512z" fill="#229e45" fill-rule="evenodd"/>
      <g transform="matrix(.74806 0 0 .74806 65.576 64.496)">
        <path d="m261.72 455.71 307.3-199.44-309.15-199.98-308.31 200.46 310.16 198.96z" fill="#f8e509" fill-rule="evenodd"/>
        <path transform="matrix(1.6911 0 0 1.7117 -100.3 -.71516)" d="m293.25 149.98c0 41.878-34.418 75.827-76.874 75.827s-76.874-33.949-76.874-75.827 34.418-75.827 76.874-75.827 76.874 33.949 76.874 75.827z" fill="#2b49a3" fill-rule="evenodd"/>
        <path transform="matrix(1.5567 0 0 1.5877 -132.89 162.78)" d="m228.543,107.68-2.588-1.465-2.674,1.301 .594-2.914-2.064-2.141 2.955-.336 1.398-2.6239 1.232,2.7059 2.928.519-2.193,2.009 .412,2.945z" fill="#ffffef" fill-rule="evenodd"/>
        <path transform="matrix(1.5567 0 0 1.5877 -45.771 184.84)" d="m228.543,107.68-2.588-1.465-2.674,1.301 .594-2.914-2.064-2.141 2.955-.336 1.398-2.6239 1.232,2.7059 2.928.519-2.193,2.009 .412,2.945z" fill="#ffffef" fill-rule="evenodd"/>
        <path transform="matrix(1.3448 0 0 1.3716 -34.894 172.87)" d="m228.543,107.68-2.588-1.465-2.674,1.301 .594-2.914-2.064-2.141 2.955-.336 1.398-2.6239 1.232,2.7059 2.928.519-2.193,2.009 .412,2.945z" fill="#ffffef" fill-rule="evenodd"/>
        <path transform="matrix(1.3204 0 0 1.3467 58.669 162.88)" d="m228.543,107.68-2.588-1.465-2.674,1.301 .594-2.914-2.064-2.141 2.955-.336 1.398-2.6239 1.232,2.7059 2.928.519-2.193,2.009 .412,2.945z" fill="#ffffef" fill-rule="evenodd"/>
        <path transform="matrix(1.5567 0 0 1.5877 -84.912 110.55)" d="m228.543,107.68-2.588-1.465-2.674,1.301 .594-2.914-2.064-2.141 2.955-.336 1.398-2.6239 1.232,2.7059 2.928.519-2.193,2.009 .412,2.945z" fill="#ffffef" fill-rule="evenodd"/>
        <path transform="matrix(1.5567 0 0 1.5877 -192.18 70.278)" d="m228.543,107.68-2.588-1.465-2.674,1.301 .594-2.914-2.064-2.141 2.955-.336 1.398-2.6239 1.232,2.7059 2.928.519-2.193,2.009 .412,2.945z" fill="#ffffef" fill-rule="evenodd"/>
        <path transform="matrix(1.5567 0 0 1.5877 -179.28 123.85)" d="m228.543,107.68-2.588-1.465-2.674,1.301 .594-2.914-2.064-2.141 2.955-.336 1.398-2.6239 1.232,2.7059 2.928.519-2.193,2.009 .412,2.945z" fill="#ffffef" fill-rule="evenodd"/>
        <path transform="matrix(1.3751 0 0 1.4025 -3.9188 70.499)" d="m228.543,107.68-2.588-1.465-2.674,1.301 .594-2.914-2.064-2.141 2.955-.336 1.398-2.6239 1.232,2.7059 2.928.519-2.193,2.009 .412,2.945z" fill="#ffffef" fill-rule="evenodd"/>
        <path transform="matrix(1.083 0 0 1.1046 55.481 137.43)" d="m228.543,107.68-2.588-1.465-2.674,1.301 .594-2.914-2.064-2.141 2.955-.336 1.398-2.6239 1.232,2.7059 2.928.519-2.193,2.009 .412,2.945z" fill="#ffffef" fill-rule="evenodd"/>
        <path transform="matrix(1.0393 0 0 1.06 -79.913 190.38)" d="m228.543,107.68-2.588-1.465-2.674,1.301 .594-2.914-2.064-2.141 2.955-.336 1.398-2.6239 1.232,2.7059 2.928.519-2.193,2.009 .412,2.945z" fill="#ffffef" fill-rule="evenodd"/>
        <path transform="matrix(.84693 0 0 .79301 167.62 231.47)" d="m228.543,107.68-2.588-1.465-2.674,1.301 .594-2.914-2.064-2.141 2.955-.336 1.398-2.6239 1.232,2.7059 2.928.519-2.193,2.009 .412,2.945z" fill="#ffffef" fill-rule="evenodd"/>
        <path transform="matrix(1.0393 0 0 1.06 -79.913 190.38)" d="m228.543,107.68-2.588-1.465-2.674,1.301 .594-2.914-2.064-2.141 2.955-.336 1.398-2.6239 1.232,2.7059 2.928.519-2.193,2.009 .412,2.945z" fill="#ffffef" fill-rule="evenodd"/>
        <path transform="matrix(1.0393 0 0 1.06 -79.913 190.38)" d="m228.543,107.68-2.588-1.465-2.674,1.301 .594-2.914-2.064-2.141 2.955-.336 1.398-2.6239 1.232,2.7059 2.928.519-2.193,2.009 .412,2.945z" fill="#ffffef" fill-rule="evenodd"/>
        <path transform="matrix(1.0393 0 0 1.06 -37.226 190.37)" d="m228.543,107.68-2.588-1.465-2.674,1.301 .594-2.914-2.064-2.141 2.955-.336 1.398-2.6239 1.232,2.7059 2.928.519-2.193,2.009 .412,2.945z" fill="#ffffef" fill-rule="evenodd"/>
        <path transform="matrix(1.0393 0 0 1.06 -42.53 204.57)" d="m228.543,107.68-2.588-1.465-2.674,1.301 .594-2.914-2.064-2.141 2.955-.336 1.398-2.6239 1.232,2.7059 2.928.519-2.193,2.009 .412,2.945z" fill="#ffffef" fill-rule="evenodd"/>
        <path transform="matrix(1.0393 0 0 1.06 46.108 178.72)" d="m228.543,107.68-2.588-1.465-2.674,1.301 .594-2.914-2.064-2.141 2.955-.336 1.398-2.6239 1.232,2.7059 2.928.519-2.193,2.009 .412,2.945z" fill="#ffffef" fill-rule="evenodd"/>
        <path transform="matrix(1.0393 0 0 1.06 20.098 178.71)" d="m228.543,107.68-2.588-1.465-2.674,1.301 .594-2.914-2.064-2.141 2.955-.336 1.398-2.6239 1.232,2.7059 2.928.519-2.193,2.009 .412,2.945z" fill="#ffffef" fill-rule="evenodd"/>
        <path transform="matrix(.65125 0 0 .66422 38.233 212.26)" d="m228.543,107.68-2.588-1.465-2.674,1.301 .594-2.914-2.064-2.141 2.955-.336 1.398-2.6239 1.232,2.7059 2.928.519-2.193,2.009 .412,2.945z" fill="#ffffef" fill-rule="evenodd"/>
        <path transform="matrix(1.0393 0 0 1.06 120.35 213.95)" d="m228.543,107.68-2.588-1.465-2.674,1.301 .594-2.914-2.064-2.141 2.955-.336 1.398-2.6239 1.232,2.7059 2.928.519-2.193,2.009 .412,2.945z" fill="#ffffef" fill-rule="evenodd"/>
        <path transform="matrix(.86091 0 0 .88028 139.46 236.14)" d="m228.543,107.68-2.588-1.465-2.674,1.301 .594-2.914-2.064-2.141 2.955-.336 1.398-2.6239 1.232,2.7059 2.928.519-2.193,2.009 .412,2.945z" fill="#ffffef" fill-rule="evenodd"/>
        <path transform="matrix(.80183 0 0 .81855 163.18 242.54)" d="m228.543,107.68-2.588-1.465-2.674,1.301 .594-2.914-2.064-2.141 2.955-.336 1.398-2.6239 1.232,2.7059 2.928.519-2.193,2.009 .412,2.945z" fill="#ffffef" fill-rule="evenodd"/>
        <path transform="matrix(.7723 0 0 .78768 199.27 220.26)" d="m228.543,107.68-2.588-1.465-2.674,1.301 .594-2.914-2.064-2.141 2.955-.336 1.398-2.6239 1.232,2.7059 2.928.519-2.193,2.009 .412,2.945z" fill="#ffffef" fill-rule="evenodd"/>
        <path transform="matrix(1.0086 0 0 .97287 105.45 240.62)" d="m228.543,107.68-2.588-1.465-2.674,1.301 .594-2.914-2.064-2.141 2.955-.336 1.398-2.6239 1.232,2.7059 2.928.519-2.193,2.009 .412,2.945z" fill="#ffffef" fill-rule="evenodd"/>
        <path transform="matrix(.91998 0 0 .97287 125.85 252.28)" d="m228.543,107.68-2.588-1.465-2.674,1.301 .594-2.914-2.064-2.141 2.955-.336 1.398-2.6239 1.232,2.7059 2.928.519-2.193,2.009 .412,2.945z" fill="#ffffef" fill-rule="evenodd"/>
        <path transform="matrix(.7723 0 0 .78768 139.93 245.86)" d="m228.543,107.68-2.588-1.465-2.674,1.301 .594-2.914-2.064-2.141 2.955-.336 1.398-2.6239 1.232,2.7059 2.928.519-2.193,2.009 .412,2.945z" fill="#ffffef" fill-rule="evenodd"/>
        <path transform="matrix(.7723 0 0 .78768 121.49 245.86)" d="m228.543,107.68-2.588-1.465-2.674,1.301 .594-2.914-2.064-2.141 2.955-.336 1.398-2.6239 1.232,2.7059 2.928.519-2.193,2.009 .412,2.945z" fill="#ffffef" fill-rule="evenodd"/>
        <path transform="matrix(.7723 0 0 .78768 90.179 218.48)" d="m228.543,107.68-2.588-1.465-2.674,1.301 .594-2.914-2.064-2.141 2.955-.336 1.398-2.6239 1.232,2.7059 2.928.519-2.193,2.009 .412,2.945z" fill="#ffffef" fill-rule="evenodd"/>
        <path transform="matrix(.65415 0 0 .66718 120.67 287.26)" d="m228.543,107.68-2.588-1.465-2.674,1.301 .594-2.914-2.064-2.141 2.955-.336 1.398-2.6239 1.232,2.7059 2.928.519-2.193,2.009 .412,2.945z" fill="#ffffef" fill-rule="evenodd"/>
        <path transform="matrix(1.5567 0 0 1.5877 -132.89 97.877)" d="m228.543,107.68-2.588-1.465-2.674,1.301 .594-2.914-2.064-2.141 2.955-.336 1.398-2.6239 1.232,2.7059 2.928.519-2.193,2.009 .412,2.945z" fill="#ffffef" fill-rule="evenodd"/>
        <path d="m387.05 302.7c1.9812-5.1813 4.537-12.995 5.8942-20.167-69.048-60.656-146.02-91.728-243.28-85.335-3.4867 6.6859-6.2778 13.683-8.6308 21.256 115.24-10.994 199.71 40.026 246.02 84.246z" fill="#fff" fill-rule="evenodd"/>
        <path d="m356.00758,268.60035 2.46714,1.3471c-.38704.87468-.49104,1.6398-.31543,2.29196 .18244.659.63597,1.23242 1.35889,1.72196 .76726.52378 1.45267.75315 2.05624.69153 .6104-.0616 1.06563-.31153 1.3606-.74801 .18584-.27901.26257-.57342.22847-.87981s-.19608-.6727-.50468-1.09549c-.21313-.28585-.73316-.89008-1.55838-1.81097-1.06051-1.18278-1.69307-2.18069-1.89767-2.99375-.28303-1.14341-.11083-2.18241.52003-3.1187 .40749-.60252.9548-1.05098 1.64362-1.34368 .69905-.29441 1.46119-.36117 2.28301-.20198 .82692.1609 1.69648.54945 2.60013,1.16566 1.47995,1.00477 2.37337,2.08656 2.67857,3.24366s.12105,2.29709-.57459,3.40969l-2.4501-1.51142c.30691-.67783.38193-1.26323.22166-1.7562-.15005-.49468-.56095-.96882-1.23272-1.42413-.69053-.469-1.3282-.69495-1.91132-.67612-.3768.012-.66665.17117-.87296.47757-.18926.28071-.23188.6008-.13129.96026 .13129.45702.6803,1.2153 1.65557,2.27655 .97185,1.05953 1.6351,1.92565 1.98803,2.59663 .36146.66928.52515,1.36594.49105,2.08827-.0239.72062-.28986,1.45494-.79283,2.20295-.45694.67954-1.07245,1.18449-1.84652,1.52169s-1.60101.41937-2.4842.24306-1.82947-.61792-2.85248-1.31458c-1.49017-1.0099-2.40405-2.13277-2.73824-3.36347-.32906-1.23585-.12787-2.57097.6104-4.00023z" fill="#309e3a"/>
        <path d="m344.30953,260.91827 2.52,1.2444c-.35124.88837-.42455,1.65864-.22336,2.30223 .21142.65044.68371,1.20674 1.42709,1.66719 .78942.49126 1.48165.69324 2.08181.60765 .6104-.0873 1.0554-.35261 1.32991-.80107 .17732-.28585.2404-.58369.19437-.88837-.0392-.30639-.22336-.66585-.55072-1.07665-.22335-.2773-.76384-.85756-1.62828-1.74593-1.10655-1.13999-1.77832-2.11223-2.01532-2.91501-.32906-1.13143-.19778-2.17556.39215-3.13754 .38534-.61792.91389-1.08692 1.58907-1.40701 .68882-.3218 1.44755-.42107 2.27448-.29612 .83375.13009 1.71694.4827 2.64446,1.06125 1.52087.94314 2.45521,1.98899 2.80645,3.1324 .35805,1.14854.21312,2.29024-.43478,3.43023l-2.51148-1.41215c.27963-.6881.33248-1.27521.15175-1.76133-.1705-.48954-.60016-.94657-1.28728-1.37449-.71099-.44162-1.35719-.64017-1.93689-.59738-.3768.0257-.65984.19856-.85421.51351-.17561.28756-.20801.60594-.0921.96197 .14834.45189.72804,1.18791 1.74423,2.20979 1.01277,1.01846 1.71182,1.85719 2.09033,2.51277 .38875.65387.57971,1.34368.57459,2.06601 .007.72234-.23188,1.46521-.70246,2.23547-.42966.69324-1.02812,1.22558-1.78514,1.5953s-1.58566.4827-2.47397.34234c-.88149-.14378-1.84993-.54603-2.90192-1.19819-1.52769-.9517-2.4859-2.0352-2.86953-3.25221s-.23358-2.56241.44672-4.01906z" fill="#309e3a"/>
        <path d="m329.83 257.04 7.4168-12.196 9.0076 5.5202-1.2549 2.0643-6.5523-4.0173-1.647 2.7028 6.0988 3.7383-1.2498 2.054-6.0988-3.7366-2.017 3.319 6.7859 4.1594-1.2515 2.0557-9.2377-5.664z" fill="#309e3a"/>
        <path d="m308.74 239.72 1.0997-2.1413 5.5055 2.85-2.595 5.058c-0.80476 0.24306-1.8158 0.30126-3.04 0.17289-1.2123-0.1318-2.3393-0.46558-3.381-1.0048-1.3231-0.68468-2.3342-1.5559-3.0332-2.6206-0.69565-1.0698-1.0281-2.2474-0.99232-3.5381 0.0392-1.2975 0.36999-2.5538 0.99573-3.7726 0.67688-1.3231 1.5601-2.3536 2.641-3.0982s2.2915-1.1109 3.6368-1.1109c1.0281-3e-3 2.1449 0.31153 3.3538 0.93287 1.572 0.81477 2.6274 1.7802 3.1645 2.8996 0.54901 1.1177 0.64961 2.3245 0.30349 3.6236l-2.7809-0.83702c0.14151-0.71548 0.058-1.3813-0.25405-1.9941-0.30179-0.61792-0.82181-1.116-1.5567-1.4977-1.1185-0.57855-2.1875-0.68296-3.2156-0.31153-1.0196 0.36973-1.8874 1.253-2.6036 2.6514-0.77578 1.508-1.0247 2.8123-0.74509 3.9146 0.28304 1.0938 0.96333 1.9222 2.0477 2.4837 0.53366 0.27558 1.1219 0.44847 1.763 0.51693 0.65132 0.0668 1.2447 0.0496 1.7868-0.0514l0.82693-1.6124-2.9275-1.5131z" fill="#309e3a"/>
        <path d="m216.76 216.91 2.0733-14.135 4.2523 0.6299 1.1441 10.017 3.9352-9.2688 4.2676 0.6299-2.0716 14.137-2.6411-0.39026 1.6334-11.128-4.4279 10.715-2.7365-0.40567-1.156-11.539-1.6317 11.126-2.6411-0.38856z" fill="#309e3a"/>
        <path d="m202.38 215.24 1.3299-14.229 10.506 0.99278-0.22165 2.4066-7.647-0.72062-0.29667 3.1546 7.1133 0.66927-0.22336 2.3981-7.115-0.67099-0.35976 3.8718 7.9129 0.74459-0.22165 2.3998-10.777-1.0168z" fill="#309e3a"/>
        <g transform="matrix(1.397 -.89423 .89074 1.4025 -199.05 128.1)" font-size="12">
          <path d="m154.793,154.478c.49-.725 1.01-1.26 1.56-1.605 .406-.253.847-.429 1.319-.529 .476-.098.928-.103 1.356-.016 .57.112 1.145.364 1.724.755 1.048.71 1.666,1.602 1.853,2.676 .192,1.078-.105,2.196-.888,3.354-.777,1.148-1.698,1.837-2.763,2.064s-2.116-.016-3.16-.723c-1.059-.716-1.681-1.607-1.87-2.673s.103-2.171.869-3.303z" fill="#309e3a"/>
          <path d="m156.306,155.431c-.545.805-.773,1.543-.683,2.212s.424,1.193.997,1.58 1.181.499 1.824.336c.649-.165 1.252-.66 1.811-1.485 .551-.815.783-1.545.696-2.189s-.423-1.163-1.015-1.564-1.207-.519-1.846-.357-1.231.648-1.784,1.467z" fill="#f7ffff"/>
        </g>
        <g transform="matrix(1.383 -.91592 .91234 1.3884 -199.32 133.77)" font-size="12">
          <path d="m160.442,163.422 4.814-7.115 3.023,2.046c.761.515 1.269.952 1.524,1.314s.384.774.37,1.241-.163.91-.448,1.331c-.361.534-.817.869-1.367,1.006-.548.134-1.165.035-1.851-.297 .188.391.31.764.363,1.116 .058.354.07.924.039,1.71l-.07,1.975-1.718-1.162 .009-2.251c.006-.802-.012-1.321-.051-1.555-.038-.238-.115-.434-.232-.589-.115-.157-.337-.348-.668-.571l-.29-.197-2.01,2.97-1.437-.972z" fill="#309e3a"/>
          <path d="m164.657,160.288 1.063.719c.689.467 1.139.729 1.35.787s.413.048.606-.029 .362-.222.507-.435c.162-.24.228-.476.196-.709s-.141-.45-.348-.646c-.106-.095-.45-.34-1.032-.734l-1.121-.758-1.221,1.805z" fill="#fff"/>
        </g>
        <g transform="matrix(1.4175 -.86112 .85776 1.4231 -194.72 119.26)" font-size="12">
          <path d="m172.424,161.157 2.626,1.776c.592.401 1.012.751 1.261,1.052 .334.405.544.866.629,1.381 .086.515.052,1.053-.101,1.615s-.452,1.17-.903,1.836c-.396.586-.811,1.041-1.243,1.367-.529.397-1.065.644-1.613.741-.412.075-.877.036-1.393-.115-.385-.114-.843-.351-1.374-.71l-2.702-1.828 4.813-7.115z" fill="#309e3a"/>
          <path d="m173.046,163.332-3.188,4.713 1.073.725c.4.272.706.445.914.52 .272.099.532.131.778.095 .25-.034.53-.177.841-.429s.657-.656 1.029-1.206 .609-1.006.712-1.366 .121-.681.058-.965-.209-.544-.438-.784c-.17-.181-.548-.47-1.134-.866l-.645-.437z" fill="#fff"/>
        </g>
        <g transform="matrix(1.5511 -.58458 .58229 1.5572 -164.55 46.058)" font-size="12">
          <path d="m200.752,190.693 4.813-7.115 2.306,1.56c.873.591 1.419,1.012 1.636,1.263 .335.382.519.846.551,1.391 .034.542-.141,1.096-.524,1.662-.295.437-.622.751-.983.941s-.72.288-1.082.294c-.357.004-.68-.052-.97-.168-.388-.164-.908-.466-1.558-.906l-.936-.634-1.816,2.684-1.437-.972z" fill="#309e3a"/>
          <path d="m206.188,185.754-1.366,2.019 .786.532c.567.383.97.602 1.211.656 .242.055.469.039.683-.047 .217-.084.397-.231.539-.442 .175-.259.244-.523.206-.794s-.16-.507-.364-.706c-.15-.149-.483-.398-1.001-.748l-.694-.47z" fill="#fff"/>
        </g>
        <g transform="matrix(1.6028 -.42116 .41952 1.6091 -143.19 2.8883)" font-size="12">
          <path d="m207.386,195.181 4.813-7.114 3.024,2.046c.761.514 1.269.952 1.524,1.313s.384.774.37,1.241-.163.911-.448,1.331c-.361.534-.817.869-1.367,1.006-.548.134-1.165.035-1.851-.296 .188.391.31.763.363,1.115 .058.355.07.925.039,1.71l-.07,1.976-1.718-1.162 .009-2.251c.005-.803-.012-1.321-.051-1.556s-.115-.433-.232-.588c-.115-.158-.337-.348-.668-.572l-.29-.197-2.01,2.971-1.437-.973z" fill="#309e3a"/>
          <path d="m211.601,192.048 1.063.719c.689.466 1.138.728 1.349.785s.413.049.607-.028 .362-.222.506-.435c.162-.24.228-.476.197-.709s-.142-.449-.348-.646c-.106-.095-.45-.339-1.032-.733l-1.121-.759-1.221,1.806z" fill="#fff"/>
        </g>
        <g transform="matrix(1.5864 -.47997 .47809 1.5926 -149.72 20.414)" font-size="12">
          <path d="m216.645,196.324c.491-.725 1.011-1.26 1.559-1.605 .408-.253.847-.43 1.321-.529 .476-.098.928-.103 1.355-.017 .571.112 1.145.364 1.724.756 1.049.709 1.666,1.601 1.854,2.676s-.105,2.195-.889,3.353c-.777,1.149-1.698,1.837-2.762,2.065s-2.116-.017-3.161-.724c-1.058-.715-1.681-1.606-1.87-2.672s.103-2.171.869-3.303z" fill="#309e3a"/>
          <path d="m218.158,197.277c-.545.805-.773,1.542-.683,2.212s.424,1.192.997,1.58 1.18.499 1.824.335c.649-.164 1.253-.659 1.811-1.484 .552-.816.784-1.545.696-2.19-.084-.641-.423-1.163-1.015-1.563s-1.207-.52-1.845-.357-1.231.648-1.785,1.467z" fill="#fff"/>
        </g>
        <g transform="matrix(1.6454 -.19485 .19409 1.6519 -103.71 -53.916)" font-size="12">
          <path d="m230.026,210.498 4.813-7.115 3.024,2.046c.76.515 1.268.952 1.524,1.314s.384.774.37,1.241-.164.91-.448,1.331c-.361.534-.817.869-1.368,1.006-.548.134-1.164.035-1.85-.297 .188.391.309.764.363,1.116 .057.355.07.924.039,1.71l-.071,1.975-1.717-1.162 .008-2.25c.005-.804-.011-1.322-.051-1.556-.037-.237-.115-.434-.232-.589-.114-.157-.337-.348-.667-.571l-.291-.197-2.009,2.97-1.437-.972z" fill="#309e3a"/>
          <path d="m234.24,207.364 1.063.719c.689.467 1.139.728 1.35.786s.413.048.607-.028 .361-.222.506-.436c.162-.239.227-.475.197-.708s-.142-.45-.348-.646c-.106-.095-.45-.34-1.033-.734l-1.12-.758-1.222,1.805z" fill="#fff"/>
        </g>
        <g transform="matrix(1.6568 0 0 1.6633 -60.955 -99.344)" font-size="12">
          <path d="m259.172,225.095c.49-.725 1.01-1.26 1.56-1.605 .407-.253.847-.429 1.32-.529 .477-.097.928-.103 1.355-.017 .571.113 1.146.365 1.725.757 1.048.709 1.666,1.601 1.854,2.676s-.106,2.194-.89,3.353c-.777,1.148-1.697,1.837-2.761,2.065-1.063.224-2.116-.017-3.162-.724-1.057-.716-1.681-1.607-1.87-2.673s.103-2.171.869-3.303z" fill="#309e3a"/>
          <path d="m260.686,226.048c-.545.806-.773,1.543-.684,2.212s.425,1.192.997,1.58 1.181.499 1.825.336c.649-.165 1.253-.659 1.811-1.485 .551-.815.783-1.545.695-2.189s-.423-1.163-1.015-1.564-1.207-.52-1.845-.357-1.23.649-1.784,1.467z" fill="#fff"/>
        </g>
        <path d="m241.76 219.84 2.2915-10.031 7.4083 1.7083-0.38534 1.6946-5.3895-1.241-0.51321 2.2235 5.0195 1.1571-0.38874 1.6877-5.0127-1.1537-0.62574 2.7284 5.5805 1.2855-0.38533 1.6912-7.5992-1.7511z" fill="#309e3a"/>
      </g>
    </g>
    <g transform="translate(0,38)">
      <path d="m214.21 111.21c-45.245 0.18809-68.716 7.7308-64.094 83.553l2.8252 46.345c47.474 5.5124 56.664 18.445 104.36 21.914 68.073 4.9513 67.937 5.4209 130.56-14.384s5.8248-65.247 207.32-57.82c4.6033 0.16968 17.314-3.0527 27.462-12.15 5.5817-46.524-2.7842-69.143-66.934-68.876z" fill="url(#b)"/>
      <path d="m531.03 495.17c-31.605 19.022-27.601 31.26-37.913 32.573-94.704 12.053-145.98-0.72701-165.8-12.061-59.588-34.078-68.468-13.014-100.22-16.574-20.115-2.2551-59.245 12.984-73.388 44.344 3.4722 27.608 18.111 32.098 44.281 31.986l356.06-1.5268c69.692-0.29885 56.335-8.4926 65.543-56.039-14.772-21.671-13.157 9.109-44.224-30.717z" fill="url(#a-1)"/>
      <path transform="translate(128,90)" d="m57,0h398a57,57 0 0,1 57,57v398a57,57 0 0,1 -57,57h-398a57,57 0 0,1 -57-57v-398a57,57 0 0,1 57-57" clip-path="url(#g)" fill="none" filter="url(#e)" stroke="#000" stroke-width="20"/>
    </g>
  </g>
</svg>